<svg width="13" height="13" viewBox="0 0 13 13" fill="none" xmlns="http://www.w3.org/2000/svg">
<path d="M2.49428 12.114L10.0556 4.28676L10.1718 11.0098C10.1811 11.5471 10.6295 11.9803 11.1668 11.971C11.2944 11.969 11.4203 11.9417 11.5374 11.8909C11.6545 11.8401 11.7603 11.7668 11.849 11.675C11.9377 11.5832 12.0073 11.4748 12.0541 11.3561C12.1008 11.2374 12.1236 11.1106 12.1213 10.983L11.9644 1.90414C11.9623 1.77656 11.9351 1.65063 11.8843 1.53358C11.8335 1.41652 11.7601 1.31063 11.6684 1.22198C11.5766 1.13332 11.4682 1.06364 11.3495 1.01691C11.2307 0.970183 11.1039 0.947333 10.9764 0.949669L1.89751 1.10657C1.76996 1.10878 1.6441 1.13608 1.52711 1.18693C1.41011 1.23777 1.30428 1.31117 1.21565 1.40292C1.12701 1.49466 1.05732 1.60297 1.01055 1.72165C0.963775 1.84034 0.940834 1.96707 0.943039 2.09461C0.945243 2.22216 0.972548 2.34803 1.0234 2.46502C1.07424 2.58202 1.14763 2.68785 1.23938 2.77648C1.33113 2.86511 1.43944 2.9348 1.55812 2.98158C1.6768 3.02835 1.80354 3.05129 1.93108 3.04909L8.65412 2.9329L1.0928 10.7602C0.720486 11.1456 0.7312 11.7655 1.11661 12.1378C1.50201 12.5101 2.12197 12.4994 2.49428 12.114Z" fill="white"/>
</svg>
