<svg width="88" height="36" viewBox="0 0 88 36" fill="none" xmlns="http://www.w3.org/2000/svg">
<path d="M86.7957 33.3059C86.7957 33.9622 86.2646 34.5072 85.6112 34.5221H83.765C83.1096 34.5092 82.5766 33.9634 82.5766 33.3059V33.262C82.5766 32.6008 83.106 32.063 83.7571 32.063H85.6153C86.28 32.063 86.7957 32.7076 86.7957 33.262V33.3059ZM85.6153 31.2699H83.7571C82.6689 31.2699 81.7835 32.1635 81.7835 33.262V33.3059C81.7835 34.3921 82.6653 35.2936 83.7571 35.3152H85.6193H85.6232C86.707 35.2936 87.5888 34.3921 87.5888 33.3059V33.262C87.5888 32.2007 86.6667 31.2699 85.6153 31.2699Z" fill="white"/>
<path d="M53.2733 32.9049H50.4215V31.3063H49.6437V35.2815H50.4215V33.6826H53.2733V35.2815H54.051V31.3063H53.2733V32.9049Z" fill="white"/>
<path d="M74.751 32.9049H71.8992V31.3063H71.1215V35.2815H71.8992V33.6826H74.751V35.2815H75.5287V31.3063H74.751V32.9049Z" fill="white"/>
<path d="M63.6632 32.9049H61.4711L61.0052 31.3063H60.1779L60.8704 33.6826H63.6632V35.2815H64.4409V31.3063H63.6632V32.9049Z" fill="white"/>
<path d="M34.205 35.2847H38.6391V34.5158H35.0149V33.4711H38.6391V32.7023H35.0149V32.075H38.6391V31.3061H34.205V35.2847Z" fill="white"/>
<path d="M65.5903 35.2791H70.0246V34.5114H66.4001V33.4681H70.0246V32.7002H66.4001V32.0739H70.0246V31.306H65.5903V35.2791Z" fill="white"/>
<path d="M47.6954 34.5069H45.4095V33.2682H47.6954C48.0367 33.2682 48.3148 33.5462 48.3148 33.8876C48.3148 34.2292 48.0367 34.5069 47.6954 34.5069ZM47.6954 32.4904H45.4095V31.3061H44.6317V32.4904V35.0412V35.2847H47.6954C48.4656 35.2847 49.0925 34.6581 49.0925 33.8876C49.0925 33.1173 48.4656 32.4904 47.6954 32.4904Z" fill="white"/>
<path d="M58.7031 35.2812H59.4808V31.3061H58.7031V35.2812Z" fill="white"/>
<path d="M55.8344 35.2546V31.3061H55.0566V35.2812H55.8207H55.8344H56.6497L58.6874 31.3061H57.8581L55.8344 35.2546Z" fill="white"/>
<path d="M32.269 35.2812H33.0811V31.3061H32.269V35.2812Z" fill="white"/>
<path d="M29.9987 33.8525V31.3061H29.1879H29.1867H28.2387L26.201 35.2815H27.1503L29.1867 31.3085V35.2815H29.2664H30.2156L32.253 31.3061H31.3037L29.9987 33.8525Z" fill="white"/>
<path d="M38.9327 35.2847H39.8491L41.6238 32.0944H42.7357V35.2784H43.5412V31.3061H41.1397L38.9327 35.2847Z" fill="white"/>
<path d="M80.2225 31.3063L79.2487 32.9049H77.5072V31.3063H76.7124V35.2793H77.5072V33.6826H79.2847L80.2225 35.2793L81.2216 35.2783L80.013 33.2587L81.2216 31.3063H80.2225Z" fill="white"/>
<path d="M11.5174 33.314C11.5174 33.9622 10.9863 34.5002 10.3328 34.5151H8.48661C7.83123 34.5021 7.2982 33.9634 7.2982 33.314V33.2706C7.2982 32.6176 7.82763 32.0865 8.47869 32.0865H10.3369C11.0016 32.0865 11.5174 32.7229 11.5174 33.2706V33.314ZM10.3369 31.3032H8.47869C7.39032 31.3032 6.50513 32.1858 6.50513 33.2706V33.314C6.50513 34.3868 7.38696 35.277 8.47869 35.2983H10.341H10.3448C11.4286 35.277 12.3104 34.3868 12.3104 33.314V33.2706C12.3104 32.2225 11.3881 31.3032 10.3369 31.3032Z" fill="white"/>
<path d="M16.346 32.9281H13.4942V31.3237H12.7164V35.2751H13.4942V33.6962H16.346V35.2751H17.1237V31.3237H16.346V32.9281Z" fill="white"/>
<path d="M21.7861 32.0827V34.4965H19.1998L20.0646 32.0827H21.7861ZM18.3633 34.4965H17.6396V35.2751H22.5746V31.304H19.5071L18.3633 34.4965Z" fill="white"/>
<path d="M4.44672 34.0548H3.35451L4.37332 32.0918H4.44672C4.99463 32.0918 5.44058 32.5323 5.44058 33.0734C5.44058 33.6146 4.99463 34.0548 4.44672 34.0548ZM2.40551 34.0548H2.18265C1.63475 34.0548 1.18879 33.6146 1.18879 33.0734C1.18879 32.5323 1.63475 32.0918 2.18265 32.0918H3.29909V32.0954H3.30701H3.32236H3.33028V32.0918H3.42408L2.40551 34.0548ZM4.75762 31.3513L4.75882 31.3491H4.74563C4.64847 31.3328 4.54868 31.3237 4.44672 31.3237H3.33028H3.29909H2.18265C1.20582 31.3237 0.411072 32.1086 0.411072 33.0734C0.411072 33.9809 1.11443 34.7292 2.01113 34.8146L1.7722 35.2751H2.72144L2.95605 34.823H3.29909H3.33028H4.44672C5.42355 34.823 6.2183 34.038 6.2183 33.0734C6.2183 32.2134 5.58668 31.4969 4.75762 31.3513Z" fill="white"/>
<path d="M71.8807 22.9138H76.394V0.820045H71.8807V22.9138Z" fill="white"/>
<path d="M33.9399 16.0547H27.7649L33.4267 5.00779H33.9399C36.9855 5.00779 39.4633 7.48536 39.4633 10.5312C39.4633 13.5769 36.9855 16.0547 33.9399 16.0547ZM22.4892 16.0547H21.452C18.4066 16.0547 15.9285 13.5769 15.9285 10.5312C15.9285 7.48536 18.4066 5.00779 21.452 5.00779H28.1511L22.4892 16.0547ZM60.4677 22.9138L71.7919 0.820048H66.5163L59.2628 14.9721V0.820048H49.5271L43.6167 12.3513C43.7276 11.7611 43.7861 11.153 43.7861 10.5312C43.7861 5.10206 39.369 0.684989 33.9399 0.684989H21.452C16.023 0.684989 11.6057 5.10206 11.6057 10.5312C11.6057 15.5735 15.4159 19.7418 20.3079 20.3105L18.9737 22.9138H24.2493L25.5493 20.3775H33.9399C36.7458 20.3775 39.2812 19.1975 41.0763 17.3081L38.2032 22.9138H43.4788L54.7495 0.92368V22.9138H55.0016H60.4677Z" fill="white"/>
</svg>
