<svg width="60" height="66" viewBox="0 0 60 66" fill="none" xmlns="http://www.w3.org/2000/svg">
<rect x="14" width="32" height="64" fill="#151515"/>
<path d="M44.1291 28.4206H42.1379V38.168H44.1291V28.4206Z" fill="white"/>
<mask id="mask0_415_2" style="mask-type:luminance" maskUnits="userSpaceOnUse" x="0" y="6" width="60" height="60">
<path d="M0 6H60V66H0V6Z" fill="white"/>
</mask>
<g mask="url(#mask0_415_2)">
<path d="M25.3993 35.1419H22.675L25.1729 30.2683H25.3993C26.7429 30.2683 27.8361 31.3613 27.8361 32.7051C27.8361 34.0487 26.7429 35.1419 25.3993 35.1419ZM20.3476 35.1419H19.89C18.5464 35.1419 17.4531 34.0487 17.4531 32.7051C17.4531 31.3613 18.5464 30.2683 19.89 30.2683H22.8455L20.3476 35.1419ZM29.6076 38.168L34.58 28.4664V38.168H34.6913H37.1028L42.0988 28.4207H39.7712L36.5712 34.6642V28.4206H32.2761L29.6685 33.508C29.7174 33.2477 29.7432 32.9794 29.7432 32.7051C29.7432 30.3098 27.7945 28.3611 25.3993 28.3611H19.89C17.4947 28.3611 15.546 30.3098 15.546 32.7051C15.546 34.9296 17.2269 36.7685 19.3852 37.0195L18.7965 38.168H21.1241L21.6975 37.049H25.3993C26.6371 37.049 27.7557 36.5284 28.5478 35.6949L27.2801 38.168H29.6076Z" fill="white"/>
</g>
</svg>
