<svg width="52" height="52" viewBox="0 0 52 52" fill="none" xmlns="http://www.w3.org/2000/svg">
<rect x="2" y="2" width="48" height="48" fill="black"/>
<path d="M38.2451 19.4317H36.5195V27.8794H38.2451V19.4317Z" fill="white"/>
<mask id="mask0_415_59" style="mask-type:luminance" maskUnits="userSpaceOnUse" x="0" y="0" width="52" height="52">
<path d="M0 2.09196e-06H52V52H0V2.09196e-06Z" fill="white"/>
</mask>
<g mask="url(#mask0_415_59)">
<path d="M22.0127 25.2568H19.6516L21.8165 21.033H22.0127C23.1771 21.033 24.1246 21.9803 24.1246 23.1449C24.1246 24.3094 23.1771 25.2568 22.0127 25.2568ZM17.6346 25.2568H17.2379C16.0735 25.2568 15.126 24.3094 15.126 23.1449C15.126 21.9803 16.0735 21.033 17.2379 21.033H19.7994L17.6346 25.2568ZM25.6599 27.8794L29.9694 19.4714V27.8794H30.0658H32.1557L36.4856 19.4318H34.4683L31.695 24.8428V19.4317H27.9726L25.7127 23.8408C25.7551 23.6151 25.7775 23.3826 25.7775 23.1449C25.7775 21.069 24.0886 19.3801 22.0127 19.3801H17.2379C15.1621 19.3801 13.4732 21.069 13.4732 23.1449C13.4732 25.0728 14.9299 26.6666 16.8005 26.884L16.2903 27.8794H18.3075L18.8045 26.9096H22.0127C23.0855 26.9096 24.0549 26.4584 24.7414 25.736L23.6427 27.8794H25.6599Z" fill="white"/>
<path d="M16.7826 31.6974H15.6922V31.086H15.3948V32.606H15.6922V31.9947H16.7826V32.606H17.08V31.086H16.7826V31.6974Z" fill="white"/>
<path d="M34.5675 31.086V32.3086H33.5373C33.4035 32.3086 33.2951 32.2003 33.2951 32.0665V31.086H32.9977V32.0608C32.9977 32.3619 33.2418 32.606 33.5429 32.606H34.8648V31.086H34.5675Z" fill="white"/>
<path d="M25.713 31.8509C25.713 32.1018 25.5099 32.3101 25.26 32.3159H24.5541C24.3035 32.311 24.0997 32.1023 24.0997 31.8509V31.834C24.0997 31.5813 24.3023 31.3757 24.5511 31.3757H25.2617C25.5158 31.3757 25.713 31.622 25.713 31.834V31.8509ZM25.2617 31.0724H24.5511C24.1351 31.0724 23.7965 31.4141 23.7965 31.834V31.8509C23.7965 32.2662 24.1337 32.6108 24.5511 32.6191H25.2631L25.2646 32.619C25.679 32.6108 26.0162 32.2662 26.0162 31.8509V31.834C26.0162 31.4283 25.6635 31.0724 25.2617 31.0724Z" fill="white"/>
<path d="M46.5845 31.8509C46.5845 32.1018 46.3814 32.3101 46.1315 32.3159H45.4257C45.1751 32.311 44.9713 32.1023 44.9713 31.8509V31.834C44.9713 31.5813 45.1738 31.3757 45.4226 31.3757H46.1332C46.3874 31.3757 46.5845 31.622 46.5845 31.834V31.8509ZM46.1332 31.0724H45.4226C45.0066 31.0724 44.668 31.4141 44.668 31.834V31.8509C44.668 32.2662 45.0052 32.6108 45.4226 32.6191H46.1347L46.1362 32.619C46.5505 32.6108 46.8877 32.2662 46.8877 31.8509V31.834C46.8877 31.4283 46.5351 31.0724 46.1332 31.0724Z" fill="white"/>
<path d="M32.4237 31.8509C32.4237 32.1018 32.2206 32.3101 31.9708 32.3159H31.2649C31.0143 32.311 30.8106 32.1023 30.8106 31.8509V31.834C30.8106 31.5813 31.013 31.3757 31.2619 31.3757H31.9724C32.2266 31.3757 32.4237 31.622 32.4237 31.834V31.8509ZM31.9724 31.0724H31.2619C30.8458 31.0724 30.5073 31.4141 30.5073 31.834V31.8509C30.5073 32.2662 30.8444 32.6108 31.2619 32.6191H31.9739L31.9755 32.619C32.3898 32.6108 32.7269 32.2662 32.7269 31.8509V31.834C32.7269 31.4283 32.3744 31.0724 31.9724 31.0724Z" fill="white"/>
<path d="M12.4324 32.6064H12.7297V31.0865H12.4324V32.6064Z" fill="white"/>
<path d="M42.8702 31.0865H42.5729H41.8738V31.38H42.5729V32.6064H42.8702V31.38H43.5692V31.0865H42.8702Z" fill="white"/>
<path d="M43.9151 32.6064H44.2125V31.0865H43.9151V32.6064Z" fill="white"/>
<path d="M6.14575 32.6079H7.84115V32.3139H6.45541V31.9145H7.84115V31.6205H6.45541V31.3807H7.84115V31.0867H6.14575V32.6079Z" fill="white"/>
<path d="M28.5577 32.6079H28.8673V31.9965H30.2531V31.7025H28.8673V31.3807H30.2531V31.0867H28.5577V32.6079Z" fill="white"/>
<path d="M8.57384 31.0867H8.26428V32.6079H9.95968V32.3139H8.57384V31.0867Z" fill="white"/>
<path d="M17.5472 32.6055H19.2426V32.312H17.8569V31.9131H19.2426V31.6195H17.8569V31.38H19.2426V31.0864H17.5472V32.6055Z" fill="white"/>
<path d="M10.1947 32.6064H10.4921V31.0865H10.1947V32.6064Z" fill="white"/>
<path d="M11.5891 32.5962L10.8153 31.0865H10.4982L11.2773 32.6064H11.5891H11.5943H11.8864V31.0865H11.5891V32.5962Z" fill="white"/>
<path d="M35.2939 32.6064H35.5912V31.0865H35.2939V32.6064Z" fill="white"/>
<path d="M36.6882 32.5962L35.9144 31.0865H35.5974L36.3764 32.6064H36.6882H36.6934H36.9856V31.0865H36.6882V32.5962Z" fill="white"/>
<path d="M47.223 32.6064H47.5203V31.0865H47.223V32.6064Z" fill="white"/>
<path d="M48.6172 31.0865V32.5962L47.8435 31.0865H47.5264L48.3055 32.6064H48.6172H48.6224H48.9146V31.0865H48.6172Z" fill="white"/>
<path d="M19.7 32.6064H19.9974V31.0865H19.7V32.6064Z" fill="white"/>
<path d="M21.0943 32.5962L20.3206 31.0865H20.0035L20.7826 32.6064H21.0943H21.0996H21.3917V31.0865H21.0943V32.5962Z" fill="white"/>
<path d="M5.40546 32.6064H5.71594V31.0865H5.40546V32.6064Z" fill="white"/>
<path d="M4.53738 32.0601V31.0865H4.22736H4.2269H3.86442L3.08533 32.6064H3.44827L4.2269 31.0873V32.6064H4.25735H4.6203L5.3993 31.0865H5.03635L4.53738 32.0601Z" fill="white"/>
<path d="M23.1997 31.0898L22.8274 31.7011H22.1616V31.0898H21.8576V32.6089H22.1616V31.9985H22.8411L23.1997 32.6089L23.5817 32.6085L23.1196 31.8363L23.5817 31.0898H23.1997Z" fill="white"/>
<path d="M14.3447 32.3169H13.9033C13.6527 32.3119 13.4489 32.1033 13.4489 31.8519V31.8351C13.4489 31.5823 13.6513 31.3767 13.9001 31.3767H14.3464C14.5171 31.3767 14.6617 31.4879 14.7385 31.6251H15.0687C14.9734 31.3141 14.6768 31.0734 14.3464 31.0734H13.9001C13.4842 31.0734 13.1456 31.4151 13.1456 31.8351V31.8519C13.1456 32.2672 13.4828 32.6119 13.9001 32.6201H14.3478H14.3494C14.6889 32.6133 14.9762 32.3806 15.069 32.0685H14.7413C14.6646 32.212 14.5167 32.3129 14.3447 32.3169Z" fill="white"/>
<path d="M39.1159 31.8515C39.1159 32.0981 38.9164 32.3028 38.6708 32.3084H37.7828V31.3845H38.6725C38.9222 31.3845 39.1159 31.6267 39.1159 31.835V31.8515ZM38.6725 31.0865H37.4855V32.6064H38.6739H38.6754C39.0826 32.5983 39.414 32.2596 39.414 31.8515V31.835C39.414 31.4363 39.0674 31.0865 38.6725 31.0865Z" fill="white"/>
<path d="M41.2173 32.0177H40.1515L40.4781 31.3805H41.2173V32.0177ZM41.5278 31.0865H41.2173H40.2765H40.2658L39.4868 32.6064H39.8498L40.0008 32.3117H41.2173V32.6064H41.5278V31.3805V31.0865Z" fill="white"/>
</g>
</svg>
